<?xml version="1.0" standalone="no"?>
<!DOCTYPE svg PUBLIC "-//W3C//DTD SVG 20010904//EN"
 "http://www.w3.org/TR/2001/REC-SVG-20010904/DTD/svg10.dtd">
<svg version="1.0" xmlns="http://www.w3.org/2000/svg"
 width="421.000000pt" height="421.000000pt" viewBox="0 0 421.000000 421.000000"
 preserveAspectRatio="xMidYMid meet">
<metadata>
Created by potrace 1.14, written by Peter Selinger 2001-2017
</metadata>
<g transform="translate(0.000000,421.000000) scale(0.100000,-0.100000)"
fill="#000000" stroke="none">
<path d="M2043 3855 c-28 -6 -57 -9 -64 -5 -23 15 -124 -26 -169 -68 -21 -20
-70 -109 -70 -129 0 -7 -12 -23 -26 -36 -14 -12 -39 -40 -54 -62 -16 -23 -47
-50 -74 -63 -25 -13 -46 -28 -46 -33 0 -5 -5 -9 -11 -9 -15 0 -99 -81 -99 -95
0 -7 -19 -32 -41 -56 -101 -108 -207 -289 -203 -349 2 -19 -2 -51 -8 -70 -6
-19 -11 -37 -11 -40 0 -3 -3 -15 -8 -28 -22 -57 -26 -151 -8 -184 6 -11 10
-48 9 -82 -4 -159 1 -326 11 -332 13 -7 11 -44 -2 -44 -6 0 -17 7 -25 15 -29
29 -79 9 -91 -36 -18 -72 -6 -212 30 -355 l13 -51 -45 -1 c-93 0 -102 -2 -128
-28 l-26 -26 8 -181 c7 -191 8 -204 20 -437 5 -80 9 -157 9 -172 1 -19 -13
-42 -51 -81 -46 -48 -133 -187 -117 -187 4 0 2 -6 -4 -12 -8 -11 -28 -71 -38
-113 -1 -5 -7 -30 -14 -55 -12 -45 -17 -65 -26 -109 -3 -14 -7 -28 -9 -32 -9
-13 20 -16 174 -18 85 -1 158 -4 163 -7 11 -7 2165 -7 2177 0 4 3 85 6 180 7
197 2 181 -10 151 119 -56 234 -106 338 -211 437 -27 25 -35 40 -33 61 2 15 6
90 9 167 3 77 7 163 10 190 6 72 19 343 18 389 -2 62 -33 86 -119 90 -83 5
-77 2 -65 24 5 9 12 33 15 52 6 38 13 70 21 110 3 14 8 61 10 105 6 131 -34
192 -99 150 -33 -22 -52 -11 -32 19 17 26 19 67 19 381 0 180 -4 240 -16 278
-8 26 -13 56 -10 66 5 20 -22 86 -44 109 -20 21 -46 74 -49 101 -5 46 -58 132
-117 191 -32 33 -63 60 -68 60 -5 0 -33 25 -63 55 -29 30 -77 67 -106 82 -46
25 -55 35 -73 81 -14 37 -40 73 -89 122 -37 39 -75 70 -83 70 -8 0 -15 3 -15
8 0 7 -23 19 -85 43 -43 16 -141 19 -202 4z"/>
</g>
</svg>
